<?xml version="1.0" standalone="no"?>
<!DOCTYPE svg PUBLIC "-//W3C//DTD SVG 20010904//EN"
 "http://www.w3.org/TR/2001/REC-SVG-20010904/DTD/svg10.dtd">
<svg version="1.0" xmlns="http://www.w3.org/2000/svg"
 width="2000.000000pt" height="2000.000000pt" viewBox="0 0 2000.000000 2000.000000"
 preserveAspectRatio="xMidYMid meet">

<g transform="translate(0.000000,2000.000000) scale(0.100000,-0.100000)"
fill="#000000" stroke="none">
<path d="M0 10000 l0 -10000 10000 0 10000 0 0 10000 0 10000 -10000 0 -10000
0 0 -10000z m15825 5143 c183 -43 308 -100 445 -201 229 -170 367 -389 438
-693 16 -69 17 -280 17 -3334 0 -3068 -1 -3265 -18 -3346 -60 -295 -206 -529
-437 -701 -141 -104 -286 -168 -467 -205 -84 -17 -355 -18 -5803 -18 -5448 0
-5719 1 -5803 18 -469 95 -809 435 -904 903 -17 85 -18 248 -18 3339 0 3058 1
3255 18 3336 47 231 143 419 295 576 197 202 438 318 717 343 44 4 2634 7
5755 6 l5675 -1 90 -22z m-4480 -9235 c71 -222 141 -444 157 -495 l29 -92 602
-3 602 -3 60 -29 c76 -38 143 -105 181 -181 l29 -60 3 -232 4 -233 -3017 0
-3017 0 4 233 3 232 29 60 c38 76 105 143 181 181 l60 29 605 5 604 5 150 493
150 492 1226 0 1226 0 129 -402z"/>
<path d="M4263 14451 c-115 -39 -207 -123 -260 -237 l-28 -59 0 -3250 0 -3250
28 -59 c54 -116 157 -207 271 -241 45 -14 698 -15 5724 -15 4161 0 5684 3
5715 11 118 32 226 123 280 236 l32 68 0 3250 0 3250 -32 68 c-42 89 -121 168
-210 210 l-68 32 -5700 2 c-5470 2 -5702 2 -5752 -16z m1745 -973 c21 -29 160
-222 308 -428 148 -206 414 -577 592 -825 177 -247 474 -662 660 -922 313
-438 338 -470 353 -455 10 10 196 267 415 572 218 305 491 686 605 845 114
160 365 508 556 775 l348 485 448 3 447 2 0 -2005 0 -2005 -445 0 -445 0 -2
1238 -3 1238 -237 -331 c-130 -181 -445 -620 -700 -975 -255 -355 -582 -816
-727 -1023 -145 -207 -267 -377 -270 -377 -3 0 -130 176 -281 390 -243 346
-533 752 -1415 1981 l-240 335 -3 -1863 -2 -1863 -445 0 -445 0 0 2630 0 2630
445 0 444 0 39 -52z m8832 -403 l0 -445 -1142 0 c-1260 0 -1187 3 -1323 -64
-137 -68 -257 -208 -306 -357 -20 -62 -24 -94 -24 -194 0 -100 4 -132 24 -194
51 -154 171 -292 316 -361 134 -64 137 -64 580 -61 430 2 633 -8 781 -39 300
-62 558 -203 779 -425 222 -221 357 -469 428 -782 19 -87 21 -127 21 -353 0
-226 -2 -266 -21 -353 -71 -313 -206 -561 -428 -782 -173 -174 -382 -306 -564
-358 l-76 -22 -2017 -3 -2018 -2 0 410 0 410 1868 2 1867 3 67 26 c101 39 174
86 247 160 155 155 222 365 193 608 -20 172 -78 296 -193 410 -74 74 -147 121
-247 159 l-67 26 -526 7 c-310 4 -558 12 -605 19 -340 50 -626 194 -867 437
-116 117 -204 241 -277 388 -66 134 -100 231 -132 379 -32 146 -31 436 0 582
68 315 196 551 421 774 249 248 506 376 871 433 14 2 553 5 1198 6 l1172 1 0
-445z"/>
</g>
</svg>
